#N canvas 47 198 847 669 10;
#X obj 285 488 outlet;
#X obj 284 64 inlet;
#X obj 355 489 outlet;
#X obj 434 489 outlet;
#X obj 508 488 outlet;
#X obj 158 187 metro 500;
#X obj 129 64 loadbang;
#X obj 396 290 delay;
#X obj 384 181 / 4;
#X obj 480 291 delay;
#X obj 563 292 delay;
#X obj 472 225 * 2;
#X obj 571 225 * 3;
#X obj 236 432 bng 15 250 50 0 empty empty empty 17 7 0 10 -262144
-1 -1;
#X obj 323 445 bng 15 250 50 0 empty empty empty 17 7 0 10 -262144
-1 -1;
#X obj 414 443 bng 15 250 50 0 empty empty empty 17 7 0 10 -262144
-1 -1;
#X obj 511 441 bng 15 250 50 0 empty empty empty 17 7 0 10 -262144
-1 -1;
#X obj 208 119 float;
#X floatatom 54 188 5 0 0 0 - - -, f 5;
#X text 362 510 2nd;
#X text 439 511 3rd;
#X text 514 511 4th;
#X text 22 207 ms between beats;
#X obj 681 231 float;
#X msg 663 187 1;
#X floatatom 683 345 5 0 0 0 - - -, f 5;
#X obj 596 486 outlet;
#X obj 722 180 / -1;
#X obj 227 213 t b b b b b;
#X floatatom 665 446 5 0 0 0 - - -, f 5;
#X obj 664 399 expr (($f1 + 1) / 2) + 1;
#X text 582 510 Swaps 1 and 2;
#X text 292 510 1st;
#X connect 1 0 17 1;
#X connect 5 0 28 0;
#X connect 6 0 5 0;
#X connect 6 0 17 0;
#X connect 6 0 24 0;
#X connect 6 0 23 0;
#X connect 7 0 14 0;
#X connect 7 0 2 0;
#X connect 8 0 7 1;
#X connect 8 0 11 0;
#X connect 8 0 12 0;
#X connect 9 0 15 0;
#X connect 9 0 3 0;
#X connect 10 0 17 0;
#X connect 10 0 4 0;
#X connect 10 0 16 0;
#X connect 11 0 9 1;
#X connect 12 0 10 1;
#X connect 17 0 5 1;
#X connect 17 0 8 0;
#X connect 17 0 18 0;
#X connect 23 0 25 0;
#X connect 23 0 27 0;
#X connect 24 0 23 1;
#X connect 25 0 30 0;
#X connect 27 0 23 1;
#X connect 28 0 10 0;
#X connect 28 1 9 0;
#X connect 28 2 7 0;
#X connect 28 3 13 0;
#X connect 28 3 0 0;
#X connect 28 4 27 1;
#X connect 28 4 23 0;
#X connect 30 0 29 0;
#X connect 30 0 26 0;
