#N canvas 47 198 847 669 10;
#X obj 285 488 outlet;
#X obj 277 77 inlet;
#X obj 355 489 outlet;
#X obj 434 489 outlet;
#X obj 508 488 outlet;
#X obj 158 187 metro 500;
#X obj 129 64 loadbang;
#X obj 397 287 delay;
#X obj 384 181 / 4;
#X text 292 510 1st;
#X obj 488 287 delay;
#X obj 568 293 delay;
#X obj 472 225 * 2;
#X obj 571 225 * 3;
#X obj 236 432 bng 15 250 50 0 empty empty empty 17 7 0 10 -262144
-1 -1;
#X obj 323 445 bng 15 250 50 0 empty empty empty 17 7 0 10 -262144
-1 -1;
#X obj 414 443 bng 15 250 50 0 empty empty empty 17 7 0 10 -262144
-1 -1;
#X obj 511 441 bng 15 250 50 0 empty empty empty 17 7 0 10 -262144
-1 -1;
#X obj 208 119 float;
#X floatatom 54 188 5 0 0 0 - - -, f 5;
#X text 362 510 2nd;
#X text 439 511 3rd;
#X text 514 511 4th;
#X text 22 207 ms between beats;
#X obj 227 213 t b b b b;
#X connect 1 0 18 1;
#X connect 5 0 24 0;
#X connect 6 0 5 0;
#X connect 6 0 18 0;
#X connect 7 0 15 0;
#X connect 7 0 2 0;
#X connect 8 0 7 1;
#X connect 8 0 12 0;
#X connect 8 0 13 0;
#X connect 10 0 16 0;
#X connect 10 0 3 0;
#X connect 11 0 18 0;
#X connect 11 0 4 0;
#X connect 11 0 17 0;
#X connect 12 0 10 1;
#X connect 13 0 11 1;
#X connect 18 0 5 1;
#X connect 18 0 8 0;
#X connect 18 0 19 0;
#X connect 24 0 11 0;
#X connect 24 1 10 0;
#X connect 24 2 7 0;
#X connect 24 3 14 0;
#X connect 24 3 0 0;
