#N canvas 47 198 847 669 10;
#X floatatom 357 295 5 0 0 0 - - -, f 5;
#X obj 227 485 float;
#X obj 248 311 -;
#X floatatom 308 336 5 0 0 0 - - -, f 5;
#X obj 224 412 metro 100;
#X obj 235 203 /;
#X msg 272 167 100;
#X obj 309 373 /;
#X floatatom 295 449 5 0 0 0 - - -, f 5;
#X floatatom 245 525 5 0 0 0 - - -, f 5;
#X obj 357 252 float;
#X msg 314 231 stop;
#X obj 293 485 +;
#X obj 330 208 t b b;
#X msg 202 249 1;
#X obj 349 93 + 1;
#X obj 307 139 float;
#X obj 347 169 delay, f 6;
#X obj 205 91 t b b b b b f f f b;
#X obj 381 210 t b b b;
#X obj 223 581 outlet;
#X obj 202 36 inlet;
#X obj 354 37 inlet;
#X connect 0 0 2 1;
#X connect 1 0 9 0;
#X connect 1 0 12 0;
#X connect 2 0 3 0;
#X connect 3 0 7 0;
#X connect 4 0 1 0;
#X connect 5 0 7 1;
#X connect 6 0 5 1;
#X connect 6 0 4 1;
#X connect 7 0 8 0;
#X connect 8 0 12 1;
#X connect 9 0 10 1;
#X connect 9 0 20 0;
#X connect 10 0 0 0;
#X connect 10 0 1 1;
#X connect 11 0 4 0;
#X connect 12 0 1 1;
#X connect 13 0 11 0;
#X connect 13 1 10 0;
#X connect 14 0 4 0;
#X connect 15 0 16 1;
#X connect 16 0 5 0;
#X connect 16 0 17 1;
#X connect 17 0 13 0;
#X connect 18 1 17 0;
#X connect 18 2 14 0;
#X connect 18 3 16 0;
#X connect 18 4 6 0;
#X connect 18 5 2 0;
#X connect 18 6 10 1;
#X connect 18 8 19 0;
#X connect 19 0 11 0;
#X connect 19 1 9 0;
#X connect 19 2 10 0;
#X connect 21 0 18 0;
#X connect 22 0 15 0;
