#N canvas 52 23 1336 848 10;
#X obj 261 121 hsl 128 15 0 1 0 0 empty empty empty -2 -8 0 10 -262144
-1 -1 1100 1;
#X text 287 97 MOOD;
#X obj 35 121 hsl 128 15 0 1 0 0 empty empty empty -2 -8 0 10 -262144
-1 -1 0 1;
#X text 64 96 CROWD SIZE;
#X obj 433 120 hsl 128 15 0 1 0 0 empty empty empty -2 -8 0 10 -262144
-1 -1 100 1;
#X text 477 96 MOVEMENT;
#X obj 283 41 receive mood;
#X obj 40 45 receive crowd_size;
#X obj 445 49 receive movement;
#X obj 230 764 dac~ 1 2;
#X obj 256 704 *~;
#X obj 72 288 line~;
#X floatatom 47 194 5 0 0 0 - - -, f 5;
#X msg 61 263 \$1 2000;
#X floatatom 257 157 5 0 0 0 - - -, f 5;
#X msg 257 188 \$1 2000;
#X obj 301 588 playsound;
#X obj 46 225 max 0.1;
#X obj 621 89 loadbang;
#X msg 622 124 2000;
#X obj 372 214 customline;
#X msg 355 237 1;
#X obj 374 258 -;
#X obj 376 277 * 1000;
#X obj 511 591 playsound;
#X obj 354 643 +~;
#X msg 292 536 ../sounds/Deep-Kick.wav;
#X msg 502 539 ../sounds/handclap.wav;
#X obj 359 386 beat, f 13;
#X obj 358 433 bng 15 250 50 0 empty empty empty 17 7 0 10 -262144
-1 -1;
#X obj 395 439 bng 15 250 50 0 empty empty empty 17 7 0 10 -262144
-1 -1;
#X obj 429 442 bng 15 250 50 0 empty empty empty 17 7 0 10 -262144
-1 -1;
#X obj 455 442 bng 15 250 50 0 empty empty empty 17 7 0 10 -262144
-1 -1;
#X obj 260 445 loadbang;
#X obj 380 311 + 800;
#X connect 0 0 14 0;
#X connect 2 0 12 0;
#X connect 6 0 0 0;
#X connect 7 0 2 0;
#X connect 8 0 4 0;
#X connect 10 0 9 0;
#X connect 10 0 9 1;
#X connect 11 0 10 0;
#X connect 12 0 17 0;
#X connect 13 0 11 0;
#X connect 14 0 15 0;
#X connect 15 0 20 0;
#X connect 16 0 25 0;
#X connect 17 0 13 0;
#X connect 18 0 19 0;
#X connect 19 0 20 1;
#X connect 20 0 22 1;
#X connect 20 0 21 0;
#X connect 21 0 22 0;
#X connect 22 0 23 0;
#X connect 23 0 34 0;
#X connect 24 0 25 1;
#X connect 25 0 10 1;
#X connect 26 0 16 0;
#X connect 27 0 24 0;
#X connect 28 0 29 0;
#X connect 28 0 16 1;
#X connect 28 1 30 0;
#X connect 28 1 16 1;
#X connect 28 2 31 0;
#X connect 28 2 16 1;
#X connect 28 3 32 0;
#X connect 28 3 24 1;
#X connect 33 0 26 0;
#X connect 33 0 27 0;
#X connect 34 0 28 0;
