#N canvas 52 23 1336 801 10;
#X obj 219 625 *~;
#X obj 53 216 line~;
#X floatatom 28 122 5 0 0 0 - - -, f 5;
#X msg 42 191 \$1 2000;
#X msg 284 125 \$1 2000;
#X obj 202 497 playsound;
#X obj 27 153 max 0.1;
#X obj 621 89 loadbang;
#X msg 622 124 2000;
#X obj 399 151 customline;
#X msg 382 174 1;
#X obj 401 195 -;
#X obj 403 214 * 1000;
#X obj 378 554 playsound;
#X obj 320 616 +~;
#X msg 193 445 ../sounds/Deep-Kick.wav;
#X msg 369 502 ../sounds/handclap.wav;
#X obj 260 295 beat, f 13;
#X obj 259 342 bng 15 250 50 0 empty empty empty 17 7 0 10 -262144
-1 -1;
#X obj 296 348 bng 15 250 50 0 empty empty empty 17 7 0 10 -262144
-1 -1;
#X obj 330 351 bng 15 250 50 0 empty empty empty 17 7 0 10 -262144
-1 -1;
#X obj 161 354 loadbang;
#X obj 407 248 + 800;
#X obj 230 764 dac~ 1 1 2 2;
#X obj 83 49 mrpeach/unpackOSC;
#X floatatom 224 119 5 0 0 0 - - -, f 5;
#X obj 84 12 mrpeach/udpreceive 3335;
#X obj 85 88 mrpeach/routeOSC /crowd_size /mood, f 70;
#X obj 79 664 hsl 128 15 0 1 0 0 empty empty empty -2 -8 0 10 -262144
-1 -1 7100 1;
#X obj 217 697 *~ 1;
#X text 96 643 Master volume;
#X obj 418 383 select 1;
#X obj 492 382 select 2;
#X obj 437 418 bng 15 250 50 0 empty empty empty 17 7 0 10 -262144
-1 -1;
#X obj 499 423 bng 15 250 50 0 empty empty empty 17 7 0 10 -262144
-1 -1;
#X obj 541 547 playsound;
#X msg 532 495 ../sounds/open_hh.wav;
#X obj 402 337 float;
#X connect 0 0 29 0;
#X connect 1 0 0 0;
#X connect 2 0 6 0;
#X connect 3 0 1 0;
#X connect 4 0 9 0;
#X connect 5 0 14 0;
#X connect 6 0 3 0;
#X connect 7 0 8 0;
#X connect 8 0 9 1;
#X connect 9 0 11 1;
#X connect 9 0 10 0;
#X connect 10 0 11 0;
#X connect 11 0 12 0;
#X connect 12 0 22 0;
#X connect 13 0 14 1;
#X connect 14 0 0 1;
#X connect 15 0 5 0;
#X connect 16 0 13 0;
#X connect 17 0 18 0;
#X connect 17 0 5 1;
#X connect 17 1 19 0;
#X connect 17 1 5 1;
#X connect 17 2 20 0;
#X connect 17 2 5 1;
#X connect 17 3 37 0;
#X connect 17 4 37 1;
#X connect 21 0 15 0;
#X connect 21 0 16 0;
#X connect 21 0 36 0;
#X connect 22 0 17 0;
#X connect 24 0 27 0;
#X connect 26 0 24 0;
#X connect 27 0 2 0;
#X connect 27 1 25 0;
#X connect 27 1 4 0;
#X connect 28 0 29 1;
#X connect 29 0 23 0;
#X connect 29 0 23 1;
#X connect 29 0 23 2;
#X connect 29 0 23 3;
#X connect 31 0 33 0;
#X connect 31 0 13 1;
#X connect 32 0 34 0;
#X connect 32 0 35 1;
#X connect 35 0 14 1;
#X connect 36 0 35 0;
#X connect 37 0 31 0;
#X connect 37 0 32 0;
