#N canvas 52 23 1336 773 10;
#X obj 219 625 *~;
#X obj 51 302 line~;
#X msg 40 277 \$1 2000;
#X msg 338 145 \$1 2000;
#X obj 202 497 playsound;
#X obj 25 239 max 0.1;
#X obj 621 89 loadbang;
#X msg 622 124 2000;
#X obj 399 151 customline;
#X msg 382 174 1;
#X obj 401 195 -;
#X obj 378 554 playsound;
#X obj 320 616 +~;
#X msg 193 445 ../sounds/Deep-Kick.wav;
#X msg 369 502 ../sounds/handclap.wav;
#X obj 332 284 beat, f 13;
#X obj 259 342 bng 15 250 50 0 empty empty empty 17 7 0 10 -262144
-1 -1;
#X obj 296 348 bng 15 250 50 0 empty empty empty 17 7 0 10 -262144
-1 -1;
#X obj 330 351 bng 15 250 50 0 empty empty empty 17 7 0 10 -262144
-1 -1;
#X obj 846 123 loadbang;
#X obj 230 764 dac~ 1 1 2 2;
#X obj 83 49 mrpeach/unpackOSC;
#X obj 84 12 mrpeach/udpreceive 3335;
#X obj 85 88 mrpeach/routeOSC /crowd_size /mood, f 70;
#X obj 437 418 bng 15 250 50 0 empty empty empty 17 7 0 10 -262144
-1 -1;
#X obj 499 423 bng 15 250 50 0 empty empty empty 17 7 0 10 -262144
-1 -1;
#X obj 541 547 playsound;
#X msg 532 495 ../sounds/open_hh.wav;
#X obj 402 337 float;
#X obj 179 166 hsl 128 15 0 1 0 0 empty empty empty -2 -8 0 10 -262144
-1 -1 6350 1;
#X obj 322 125 / 2;
#X obj 407 249 + 400;
#X obj 281 654 rev3~ 100 90 3000 20;
#X obj 217 697 +~;
#X floatatom 529 668 5 0 0 0 - - -, f 5;
#X floatatom 651 538 5 0 0 0 - - -, f 5;
#X obj 593 608 * 100;
#X msg 637 561 1;
#X obj 633 584 -;
#X obj 593 638 + 40;
#X obj 264 685 *~ 0.3;
#X text 181 69 Input commands \, both scaled 0-1;
#X obj 403 214 * 1200;
#X obj 783 450 playsound;
#X obj 767 492 *~ 0;
#X floatatom 744 541 5 0 0 0 - - -, f 5;
#X msg 774 398 ../sounds/claves.wav;
#X obj 665 329 * 0.5;
#X obj 418 383 sel 1 2;
#X obj 913 373 float;
#X obj 918 452 playsound;
#X obj 911 552 *~ 0;
#X obj 1087 452 playsound;
#X obj 910 515 * 0.07;
#X msg 913 412 ../sounds/cowbell.wav;
#X obj 1120 545 *~ 1;
#X msg 1095 416 ../sounds/crashcym.wav;
#X obj 30 165 hsl 128 15 0 1 0 0 empty empty empty -2 -8 0 10 -262144
-1 -1 1270 1;
#X floatatom 64 537 5 0 0 0 - - -, f 5;
#X obj 57 482 else/sig2float~;
#X obj 186 126 max 0.1;
#X obj 1119 508 * 0.4;
#X obj 912 318 expr $f1>0.25;
#X obj 652 518 * 2;
#X connect 0 0 32 0;
#X connect 0 0 33 0;
#X connect 1 0 0 0;
#X connect 1 0 59 0;
#X connect 2 0 1 0;
#X connect 3 0 8 0;
#X connect 4 0 12 0;
#X connect 5 0 2 0;
#X connect 6 0 7 0;
#X connect 7 0 8 1;
#X connect 8 0 10 1;
#X connect 8 0 9 0;
#X connect 8 0 61 0;
#X connect 8 0 62 0;
#X connect 8 0 63 0;
#X connect 9 0 10 0;
#X connect 10 0 42 0;
#X connect 11 0 12 1;
#X connect 12 0 0 1;
#X connect 13 0 4 0;
#X connect 14 0 11 0;
#X connect 15 0 16 0;
#X connect 15 0 4 1;
#X connect 15 0 43 1;
#X connect 15 1 17 0;
#X connect 15 1 4 1;
#X connect 15 1 43 1;
#X connect 15 1 50 1;
#X connect 15 2 18 0;
#X connect 15 2 4 1;
#X connect 15 2 43 1;
#X connect 15 3 28 0;
#X connect 15 3 43 1;
#X connect 15 4 28 1;
#X connect 19 0 13 0;
#X connect 19 0 14 0;
#X connect 19 0 27 0;
#X connect 19 0 46 0;
#X connect 19 0 56 0;
#X connect 19 0 54 0;
#X connect 21 0 23 0;
#X connect 22 0 21 0;
#X connect 23 0 57 0;
#X connect 23 1 60 0;
#X connect 26 0 12 1;
#X connect 27 0 26 0;
#X connect 28 0 48 0;
#X connect 29 0 30 0;
#X connect 30 0 3 0;
#X connect 30 0 47 0;
#X connect 31 0 15 0;
#X connect 32 0 40 0;
#X connect 32 1 40 0;
#X connect 32 2 40 0;
#X connect 32 3 40 0;
#X connect 33 0 20 0;
#X connect 33 0 20 1;
#X connect 33 0 20 2;
#X connect 33 0 20 3;
#X connect 35 0 37 0;
#X connect 35 0 38 1;
#X connect 36 0 39 0;
#X connect 37 0 38 0;
#X connect 38 0 36 0;
#X connect 39 0 34 0;
#X connect 39 0 32 2;
#X connect 40 0 33 1;
#X connect 42 0 31 0;
#X connect 43 0 44 0;
#X connect 44 0 12 1;
#X connect 46 0 43 0;
#X connect 47 0 44 1;
#X connect 47 0 45 0;
#X connect 48 0 24 0;
#X connect 48 0 11 1;
#X connect 48 0 52 1;
#X connect 48 1 25 0;
#X connect 48 1 26 1;
#X connect 49 0 53 0;
#X connect 50 0 51 0;
#X connect 51 0 12 1;
#X connect 52 0 55 0;
#X connect 53 0 51 1;
#X connect 54 0 50 0;
#X connect 55 0 12 1;
#X connect 56 0 52 0;
#X connect 57 0 5 0;
#X connect 59 0 58 0;
#X connect 60 0 29 0;
#X connect 61 0 55 1;
#X connect 62 0 49 0;
#X connect 62 0 49 1;
#X connect 63 0 35 0;
