#N canvas 295 174 1114 639 10;
#X obj 87 335 soundfiler;
#X obj 87 248 pack s \$0;
#X obj 456 421 tabread~ \$0-SAMPLE;
#X obj 452 311 line~;
#X obj 423 158 t b b;
#X msg 503 283 0;
#X obj 423 284 pack f f;
#X obj 508 130 r \$0-SAMPCOUNT;
#X obj 423 260 f;
#X obj 87 373 s \$0-SAMPCOUNT;
#X obj 508 194 / 44100;
#X obj 508 224 * 1000;
#X msg 87 298 read -resize \$1 \$2-SAMPLE;
#X obj 221 459 table \$0-SAMPLE 100;
#X obj 455 501 outlet~;
#X obj 106 75 inlet;
#X text 95 41 Filename;
#X obj 212 74 inlet;
#X text 214 45 Tick;
#X connect 0 0 9 0;
#X connect 1 0 12 0;
#X connect 2 0 14 0;
#X connect 3 0 2 0;
#X connect 4 0 8 0;
#X connect 4 1 5 0;
#X connect 5 0 3 0;
#X connect 6 0 3 0;
#X connect 7 0 10 0;
#X connect 7 0 8 1;
#X connect 8 0 6 0;
#X connect 10 0 11 0;
#X connect 11 0 6 1;
#X connect 12 0 0 0;
#X connect 15 0 1 0;
#X connect 17 0 4 0;
