#N canvas 295 174 1064 679 10;
#X obj 125 287 soundfiler;
#X obj 152 368 / 44100;
#X obj 152 398 * 1000;
#X obj 125 314 t b f;
#X obj 125 162 pack s \$0;
#X obj 456 330 tabread~ \$0-SAMPLE;
#X obj 457 359 dac~;
#X obj 455 301 line~;
#X obj 426 148 t b b;
#X msg 506 273 0;
#X obj 426 274 pack f f;
#X obj 426 121 r \$0-TICK;
#X obj 511 120 r \$0-SAMPCOUNT;
#X obj 426 250 f;
#X obj 212 368 s \$0-SAMPCOUNT;
#X obj 89 511 s \$0-TICK;
#X obj 511 184 / 44100;
#X obj 511 214 * 1000;
#X obj 87 579 table \$0-SAMPLE 100;
#X obj 158 511 print TICK;
#X obj 308 368 print LOADED;
#X obj 235 123 r playrate;
#X obj 184 451 *;
#X obj 241 212 /;
#X obj 207 397 r \$0-DURRATIO;
#X obj 241 236 s \$0-DURRATIO;
#X obj 567 184 r \$0-DURRATIO;
#X obj 538 244 *;
#X obj 311 122 loadbang;
#X msg 311 144 1;
#X obj 260 511 print TEMPO;
#X obj 207 419 t b f;
#X obj 567 213 t b f;
#X obj 89 475 metro;
#X obj 239 171 t b f;
#X msg 239 191 1;
#X msg 125 259 read -resize \$1 \$2-SAMPLE;
#X msg 63 84 sounds/Bass-Drum-1.wav;
#X obj 63 41 loadbang;
#X msg 290 317 print sf;
#X connect 0 0 3 0;
#X connect 1 0 2 0;
#X connect 2 0 22 0;
#X connect 3 0 33 0;
#X connect 3 1 1 0;
#X connect 3 1 14 0;
#X connect 3 1 20 0;
#X connect 4 0 36 0;
#X connect 5 0 6 0;
#X connect 7 0 5 0;
#X connect 8 0 13 0;
#X connect 8 1 9 0;
#X connect 9 0 7 0;
#X connect 10 0 7 0;
#X connect 11 0 8 0;
#X connect 12 0 16 0;
#X connect 12 0 13 1;
#X connect 13 0 10 0;
#X connect 16 0 17 0;
#X connect 17 0 27 0;
#X connect 21 0 34 0;
#X connect 22 0 30 0;
#X connect 22 0 33 1;
#X connect 23 0 25 0;
#X connect 24 0 31 0;
#X connect 26 0 32 0;
#X connect 27 0 10 1;
#X connect 28 0 29 0;
#X connect 29 0 34 0;
#X connect 31 0 22 0;
#X connect 31 1 22 1;
#X connect 32 0 27 0;
#X connect 32 1 27 1;
#X connect 33 0 15 0;
#X connect 34 0 35 0;
#X connect 34 1 23 1;
#X connect 35 0 23 0;
#X connect 36 0 0 0;
#X connect 36 0 39 0;
#X connect 37 0 4 0;
#X connect 38 0 37 0;
